<svg xmlns="http://www.w3.org/2000/svg" viewBox="0 0 1000 541.6" style="enable-background:new 0 0 1000 541.6" xml:space="preserve"><style>.st0{fill:#4eddc8}.st2{opacity:.15}.st3{fill:#ffff79}.st6{fill:#fff}</style><g id="mascot"><path d="M687 34c-6-16-16-23-19-25-11-9-23-9-28-9h-1c-16 0-27 7-34 10a97 97 0 0 0-30 26l-1 2h-1l-4 1a39 39 0 0 0-27 23 46 46 0 0 0-3 23c1 6 4 12 7 18l1 1 1 1v1l1 10c2 7 13 20 20 23l3 2-1 3-9 29-6 13-2 2a40 40 0 0 1-27 13l-16 3c-9 3-24 6-40 18-19 13-32 32-33 34l-1 2c-3 5-5 7-7 8a9 9 0 0 1-7 0c-3-2-5-5-9-12l-3-7-4-7c-2-3-5-6-9-7-3-2-6-3-10-3l-10 2-1 1h-2l-1 1c-5 3-9 8-13 14l-5 18c-2 12-2 26 1 39l1 2v1l3 9 3 5h-6l-14 4c-6 2-13 5-18 11a23 23 0 0 0-3 25l1 1c8 19 32 31 37 33 19 8 40 8 59 2h1c-4 4-9 9-12 15l-1 10c1 7 6 19 27 26a94 94 0 0 0 36 6h1c6-1 25-5 46-23 12-11 24-35 26-40 9-5 17-11 25-19-1 6-1 16 5 23 14 15 21 10 47-15l12-14v-1l8-12c5-10 9-16 9-25l-2-13-5-11-1-1v-1h-1l-2-4-10-24v-2l1-2 8-21a408 408 0 0 0 18-65l1-5c2-14 4-28 4-41l1-2 1-1a121 121 0 0 0 25-36c2-5 5-11 6-20 0-3 2-22-7-46z"/><path class="st0" d="M677 44c-7-19-15-23-17-25-8-6-16-6-21-6a44 44 0 0 0-12 2h-2l-3 1-1 1-2 1h-1l-3 1-1 1-3 2c-15 8-24 20-30 28h-5l-1 1h-2l-2 1h-1l-3 1-4 2-2 2-2 2c-9 10-7 23-7 24 2 10 8 16 10 18-1 2-2 7 0 12 1 4 3 7 8 12l17 11v1a913 913 0 0 1-21 57l-2 2c-3 3-7 8-13 11-13 8-20 6-37 10-8 2-22 5-36 15l-2 2-6 5-1 1-1 1-4 3-1 1-1 1-12 15-1 1v1c-4 6-7 12-14 14a22 22 0 0 1-18 0c-7-3-10-10-14-17-5-9-5-14-10-16l-2-1h-3l-6 1-1 1c-13 7-16 35-11 56v2l9 19 17 4 23 2-12 6c-7 2-13 2-18 1h-5l-14-1-16 2-2 1-3 1c-4 1-10 3-13 7l-2 3c-1 7 5 15 13 22 5 4 10 8 15 10a67 67 0 0 0 14 6h1c2 1 20 6 44-5l3-1 1-1 1-1h1l1-1h1l1-1 2-1 4-3 2-1 2-1 1-2 1-1 2-1 7-6 3-2 3-3 6-5-1 5-1 2-1 2-1 1v2l-1 1v1l-1 1v1l-1 1-1 2-1 2-1 1-1 1v1l-1 1-2 2v1l-1 1-1 1-2 2-1 1-2 1v1h-1l-3 3c0 1 6 4 22 5l3 1a125 125 0 0 0 56-8l6-3 6-3 4-2 6-3a175 175 0 0 0 58-69l20-42v-2l2-5 12-33c6-20 9-36 10-42l1-5 1-4 4-43c16-13 23-27 27-36l5-16c1-10 2-17-4-34zM571 301a78 78 0 0 1-70 62c-9 0-16-2-22-8l-2-1c-10-11 1-23 8-29l17-19c6-7 13-15 16-25l1-4 3-9 2-2v2c2 5 2 8 1 11-1 16-9 28-16 38l-9 10-12 15v2c3 2 7 3 13 3l10-1c42-13 60-47 50-91l-1-5 3 4 5 10c5 12 6 24 3 37z"/><path d="m523 403-2 3-1 2-1 2-3 4-1 1-1 1v1l-1 1-1 1-1 1-1 1-2 1c-18 19-37 19-37 19h-15l-16-4c-10-4-18-9-18-15v-4l9-11 2-1 1-1a154 154 0 0 0 89-2z"/><path class="st0" d="M522 404a154 154 0 0 1-88 1l-3 2-9 11v3c0 7 9 12 18 15 5 3 11 4 16 5h15s19 0 37-19l2-2h1l1-2 1-1h1l1-1v-1l1-1 3-4 1-2 1-2 2-3-1 1z"/><path d="M646 354z" style="fill:#0e211e"/><path d="m523 403-1 1 1-1zM635 330c0 6-2 10-6 17-2 3-7 12-24 29l-8 8-3 3-1 1h-2v1h-2l-5-5-1-2v-2l-1-4-1-3v-6l2-11 5-5 14-22 18-36a150 150 0 0 0 10 21c3 6 5 10 5 16zM451 376zM441 386zM458 364l-1 1 1-1zM458 363v1-1zM458 363zM393 244h-3 3zM400 270c-1 3-3 5-6 6-4 0-10-7-8-12 2-3 6-5 10-3s5 6 4 9zM416 294c-2 3-8 3-12 1-4-3-4-9-2-13 0 0 2-3 5-4 5-1 9 4 11 8 0 1 1 5-2 8zM571 301a78 78 0 0 1-70 62c-9 0-16-2-22-8l-2-1c-10-11 1-23 8-29l17-19c6-7 13-15 16-25l1-4 3-9 2-2v2c2 5 2 8 1 11-1 16-9 28-16 38l-9 10-12 15v2c3 2 7 3 13 3l10-1c42-13 60-47 50-91l-1-5 3 4 5 10c5 12 6 24 3 37zM585 63c-2 1-11 1-16 9-5 7-2 17-2 19-7-5-8-17-4-23s14-9 22-5zM581 212c-2 6-7 8-8 8 0 0-5 1-8-2 0 0-2-3-1-5l1-3 7-5c3-1 6-2 8 0 2 3 1 7 1 7zM592 187c-1 0-4 4-8 2l-4-3v-4c0-4 2-7 3-7 2-3 4-5 7-4s4 5 4 5c2 6-2 10-2 11zM597 159c-1 0-3 2-5 1 0 0-2 0-2-2v-2l2-4c1-2 2-3 4-3l2 4c1 3-1 6-1 6zM668 86c-6 10-10 12-19 16-11 5-21 4-29 1-10-3-13-7-28-14l-9-2c4-3 11-7 17-13 13-13 11-21 21-28 12-9 32-13 43-4 4 3 5 7 7 10 5 11 4 24-3 34zM458 364zm0 0-1 1 1-1z"/><path d="m458 364-1 1 1-1zm0 0zm110-100-5-10-4-4 2 5c10 44-9 78-51 91l-10 1c-5 0-9-1-12-3l-1-1 1-1 12-15 8-9c8-10 16-23 17-38 1-4 0-7-1-12l-1-2-1 2-3 9-1 4c-3 10-10 18-16 25l-17 19c-7 6-18 18-8 29l1 2c6 5 14 7 23 7 11 0 25-5 37-12 16-11 29-30 33-50 3-13 2-25-3-37zm16 92-3 11 7-16-4 5z"/><path class="st2" d="M441 386zM451 376zM458 364zM458 364z"/><path class="st0" d="M563 68c-4 6-3 18 4 23 0-2-3-12 2-19 5-8 14-8 16-9-8-4-18-1-22 5zm17 137c-1-2-5-1-8 0-1 0-4 2-6 5-2 1-2 2-2 3l2 5c2 3 7 2 8 2 0 0 6-2 7-8 0 0 1-4-1-7zm14-29s-1-4-4-5-5 1-7 4c0 1-3 3-3 7v4l4 3c4 2 7-2 8-2 0-1 4-5 2-11zm4-23-2-4c-2 0-3 1-4 3l-2 4v2c0 2 2 2 2 2 2 1 4-1 5-1 0 0 2-3 1-6zm73-101c-2-3-3-7-7-10-11-9-31-5-43 4-10 7-8 15-21 28l-17 13 9 3c14 6 18 10 28 13 8 3 18 4 29-1a37 37 0 0 0 22-50zM568 264l-5-10-4-4 2 5c10 44-9 78-51 91l-10 1c-5 0-9-1-12-3l-1-1 1-1 12-15 8-9c8-10 16-23 17-38 1-4 0-7-1-12l-1-2-1 2-3 9-1 4c-3 10-10 18-16 25l-17 19c-7 6-18 18-8 29l1 2c6 5 14 7 23 7 11 0 25-5 37-12 16-11 29-30 33-50 3-13 2-25-3-37zm-31 86c-16 11-41 18-57 5l-2-2c-10-10 0-20 7-28l17-18c7-8 14-16 17-26l4-12c1 3 2 7 1 11-1 14-8 26-16 37-7 9-16 16-21 25l-1 2 1 1c3 2 7 3 11 3 4 1 9 0 13-1 38-12 57-41 53-79-1-4-1-9-3-13 3 3 5 7 6 10 13 30-3 67-30 85zM391 244h2-2zm5 17c-3-2-8 0-10 4s4 11 8 11c3-1 5-3 6-6s0-7-4-9zm22 25c-2-4-6-9-11-8-3 1-5 4-5 5-2 3-1 9 2 12 4 2 10 2 12-1 3-3 2-7 2-8zM609 174h-1l1-1v1z"/><path class="st3" d="M400 270c-1 3-3 5-6 6-4 0-10-7-8-12 2-3 6-5 10-3s5 6 4 9zM416 294c-2 3-8 3-12 1-4-3-4-9-2-13 0 0 2-3 5-4 5-1 9 4 11 8 0 1 1 5-2 8zM467 297c-1 5-10 8-17 9h-2c-5 1-12 2-17-4 0 0-4-5-3-9 1-5 9-7 13-8h10c3 0 7 1 11 4 1 1 5 4 5 8zM504 246c0 6-5 12-8 16-4 5-12 15-21 12-3 0-7-3-8-7-3-7 3-14 6-19l2-2c4-4 12-12 20-10 3 1 7 4 8 7l1 3zM553 236c-2 5-5 8-8 10-5 4-10 5-11 5s-13 3-19-4l-1-1c-1-1-4-5-3-9 0-2 1-3 4-6 7-7 14-9 17-10 7-2 15-4 19 1 5 4 2 13 2 14zM581 212c-2 6-7 8-8 8 0 0-5 1-8-2 0 0-2-3-1-5l1-3 7-5c3-1 6-2 8 0 2 3 1 7 1 7zM592 187c-1 0-4 4-8 2l-4-3v-4c0-4 2-7 3-7 2-3 4-5 7-4s4 5 4 5c2 6-2 10-2 11zM597 159c-1 0-3 2-5 1 0 0-2 0-2-2v-2l2-4c1-2 2-3 4-3l2 4c1 3-1 6-1 6z"/><path d="M585 63c-2 1-11 1-16 9-5 7-2 17-2 19-7-5-8-17-4-23s14-9 22-5zM668 86c-6 10-10 12-19 16-11 5-21 4-29 1-10-3-13-7-28-14l-9-2c4-3 11-7 17-13 13-13 11-21 21-28 12-9 32-13 43-4 4 3 5 7 7 10 5 11 4 24-3 34z"/><path d="M610 89c-1-7 17-12 20-13 8-2 18-5 26 0l6 8a42 42 0 0 1-33 14c-7 0-19-4-19-9z" style="fill:#ed5d5d"/><path d="M523 268z" style="fill:#6effec"/><path class="st0" d="M635 330c0 6-2 10-6 17-2 3-7 12-24 29l-8 8-3 3-1 1h-2v1h-2l-5-5-1-2v-2l-1-4-1-3v-6l2-11 5-5 14-22 18-36a150 150 0 0 0 10 21c3 6 5 10 5 16z"/><path d="M391 244h2-2zM571 301a78 78 0 0 1-70 62c-9 0-16-2-22-8l-2-1c-10-11 1-23 8-29l17-19c6-7 13-15 16-25l1-4 3-9 2-2v2c2 5 2 8 1 11-1 16-9 28-16 38l-9 10-12 15v2c3 2 7 3 13 3l10-1c42-13 60-47 50-91l-1-5 3 4 5 10c5 12 6 24 3 37zM638 250z"/><path class="st6" d="M644 174v4l-1 5c-1 5-4 21-11 42l-11 33-2 5-1 1-20 43-4 8a174 174 0 0 1-59 64l-4 2-7 3-5 2a107 107 0 0 1-56 8h-4c-16-2-21-4-21-5l3-3 1-1 2-2h1l1-2 2-2v-1l1-1 1-1h1v-1l1-2 1-1 1-1v-1l2-2v-1l1-2 1-1v-2h1v-1l1-2v-1h8l10-2c7 5 14 7 23 7 11 0 25-5 37-12 16-11 29-30 33-50 3-13 1-25-3-37l11-11 4-7c7-11 10-24 19-52l2-6v-1l2-5v-2a88 88 0 0 0 2-4v-3c3-7 5-13 9-19l3-3c20-28 25 2 24 23z"/><path class="st6" d="m609 173-1 1h1v-1zM451 376zM458 364l-1 1 1-1zM458 363v1-1zM458 363zM441 386z"/></g><g id="black_outlines"><path d="m378 395 1 22-21-2v-20z"/><path d="M997 433c3-8 5-17 0-24-24-30-77-23-100 5-16-16-40-17-59-7-15-7-47-10-63-1a89 89 0 0 0-77-11c-14-4-31 0-46 0-12 2-15 6-15 6-8-4-45-4-49 1a71 71 0 0 0-80-2l-5-4c-20-16-53-14-72-4-31-23-50-8-58 3l-6 9-7-9c-10-11-27-24-37-19-9 4-13 12-19 19-22-13-59-10-76 5-14 10-20 30-21 49h-10c0-24 14-56-25-53-15 0-30-2-44 4-28-23-100-23-125 2-9 12 5 45 6 59 1 6 5 13 10 16l4 31c0 10 2 22 13 27 19 7 41 5 59-4 9-6 4-23 6-33l13-4c1 2-2 23 5 29 25 15 75 13 103 8 16 10 36 8 52-2 16 10 38 5 54-4 13 14 70 10 75-3 18 12 56 24 90 2-2 1 24 24 57 5 5 4 14 7 29 7 4 0 16-4 23-8 16 13 36 16 55 6 12 6 30 5 41-2 10 4 21 1 31 2 6 0 11 0 16-3 11 6 21 4 33 2 5 0 10 0 15-2 17 8 38 7 55 0 13 9 31 5 45-1 49 33 138-10 91-71 6-8 10-17 13-26z"/></g><g id="green"><path class="st0" d="M694 412c-1-5-7-4-10-3l-35 2c3 13 5 26 9 38v1a20 20 0 0 1-4 16l-1 2c-2 1-3 4-5 4h-2a22 22 0 0 1-12-24l1-6v-3l1-1v-3l1-3v-3l1-5h1c0-3 0-5-2-6l-7-2c-11 0-22-2-33 0a425 425 0 0 1 7 20l1 4c7 29 8 48 4 72 13 17 32 15 50 4 6 7 16 7 25 6s8-10 10-17l4-32v-31l-4-30zM984 417c-3-5-10-7-15-9a55 55 0 0 0-60 16v-1l-5 8 1 14 1 15v5l4 3c7 7 15 10 25 15v1h1-1l-1 1h-1c-9 6-19 0-26-5 1 13 1 26-4 39l2 1c13 7 25 8 36 7 10-1 18-4 25-9l1-1c7-4 11-10 14-16l1-10v-1c-1-5-2-11-6-16v-1l-11-10c-9-6-17-9-14-15 5-5 13-2 16 6l1 1a75 75 0 0 0 16-32v-6zM879 419c-13-6-28-4-39 6v14l6 25-19 12c-1-10-2-20-1-30 0-6 2-13 4-19s1-7-4-9c-8-2-37-6-42 1 5 10 11 22 7 37-2 4-4 11-8 14 12 11 19 30 19 48 11 5 24 4 36 0v1l5-3 3-1 5-3c9 13 27 9 39 2l2-9c2-18 2-40-2-58-2-9-1-22-11-28zM298 409c-10-6-21-8-32-6-33 1-44 21-44 51 3 1 5 2 7 5 11 19 11 42 6 61 9 4 19 3 28-2 6-7 0-17 0-26 6 6 13 5 19 0 1 23-5 31 23 26 6-2 15-3 15-11a200 200 0 0 0-5-66c-4-11-6-25-17-32zm-33 53c-7 1-6-12-9-17-5-13 10-21 20-19 9 2 8 13 7 20-2 15-2 16-18 16zM418 431l2-3v-1l1-1v-1l3-9v-6c-1-5-4-9-8-12h-1l-1-1-2-1h-1l-1-1h-1c-4-1-9-2-13-1h-1l-2 1-1 1h-1l-1 1h-1l-1 1-1 1-1 1v1l-1 1-3 3-3 6-1 1-2 3-1 2-5 7-5 8a130 130 0 0 0-10-19l-1-1v-1l-1-1-13-14h-1l-6-5-4-1-4 2-1 1-4 5-5 9 7 14v1l5 11 1 5 3 13 1 2 1 1h1v1l1 1 1 1 2 1 1 2 1 1 1 2 1 1v4c-1 15-5 30-4 45a19 19 0 0 0 7 3l3 1 2 1c13 2 30 1 38-3h1v-2h1v-7l-1-2v-14l-1-2v-4l-1-4c-1-5 0-10 2-15 3-6 8-12 13-18h1c5-5 11-10 15-16zM500 415v-5 1l-2-3v-1h-1l-3-2-2-1h-1l-1-1h-1l-1-1-2-1h-2l-1-1h-3v-1h-4l-2-1h-6l-14 1h-1l-4 1-3 1-9 5c2 4 2 9 1 15l-5 13v1l-2 3-3 5-3 5-2 2-1 1-3 5s7 11 32 21c-14 11-29-4-33-8-3 3-5 9-6 15-3 12-1 25 7 28l1 1 2 1h1c12 5 23 7 33 6l4-1a66 66 0 0 0 21-8l1-1h1l1-1 2-2 1-1 1-1 2-1v-1h1v-1l1-1 1-1v-1l1-1 1-2 1-2v-1l1-2v-12l-1-1v-2l-1-1v-2l-1-1v-1l-1-1v-1l-1-2-1-1c-3-4-7-8-11-10l-2-1v-1h-1l-2-2h-1l-1-1-2-1-1-1-1-1h-1l-2-5 1-2v-1l4-2h1l6 2 4 7 1 1 2-3h1v-1l4-5 3-6 1-1 3-8v-1l3-8zm-11 25v-1 1z"/><path class="st0" d="m777 456 1-3c2-9 0-18-4-26l-3-3v-1l-2-2-2-2-2-2-4-3c-17-7-38-12-56-6l5 32c1 9 2 19 1 32-1 12 0 31-6 46h31c4-3 1-11 2-16 7 6 12 17 22 18h1c7 0 14-3 22-3 16-2-12-40-16-48 4-4 8-8 10-13zm-51-16c9-11 27-5 26 9-3 24-39 10-26-9zM182 467c2-10 1-19 2-29l2-20c0-11-15-6-21-7-9 0-20-1-28 2 5 10 7 18 8 37 0 14-6 30-19 37 2 8-1 18 3 24 22 9 48 9 72 7 9-1 22 2 23-11 1-8 0-34-4-38-5-8-28 0-38-2z"/><path class="st0" d="M130 437c-6-48-79-43-113-29-5 5 0 13 0 18l7 30c0 6 2 11 8 7 3 14 4 28 6 43 1 5 0 13 5 15 12 4 26 3 38 0 4-1 6-5 7-9l-2-16c-2-7 5-7 11-9 16-3 40-17 33-50zm-39 15-4 3c-18 10-18 0-23-15 8-7 36 1 27 12zM597 481l-4-32-2-8-6-17c-3-7-7-12-11-15h-1c-16-10-44-8-59 1 6 15-11 41-14 46h-1l1 1c12 12 16 36 8 51l-3 5 1 4c4 5 12 6 19 5h2l8-3 1-1h1l1-1 2-1v-1l1-1v-2l1-1v-3l-1-1v-5l-1-1v-2l-2-8c6 6 14 6 20 1 1 23-5 30 23 26l9-3c4-2 5-5 6-8v-1l1-9v-16zm-38-35-2 10c-1 3-3 4-6 5l-9 1h-1l-2-1-3-2-2-8-2-7v-9c0-2 1-4 3-5a19 19 0 0 1 4-2l1-1h1l6-2h1l4 1c2 0 4 2 5 3v1c2 2 3 4 2 8v8z"/></g><g id="yellow"><path class="st3" d="M497 484v6l-1 2v1l-1 2v1l-1 1-1 2v1h-1l-1 1v1l-1 1-2 2-1 1-1 1a28 28 0 0 1-2 2h-1v1h-2l-1 1c-5 3-13 7-20 8l-3 1h-1c-10 0-21-1-33-6l-1-1-2-1-1-1c-7-2-9-16-7-28 1-6 3-11 6-15 4 4 20 20 33 8-24-10-32-20-32-21l3-4 2-2 1-1 3-5 3-6 2 1 3 1h2l4 1 1 1h3l6 1h3l3 1 8-1-1 1 3 4v1l2 1 1 1 1 1h1l1 1 3 1 1 1 2 1 11 10v1l1 1v1l1 1 1 2v1l1 1v2l1 1v3l1 1v4zM892 505l-2 10c-12 7-29 10-39-3l-5 3-3 2-5 2c-12 4-25 4-36 0 0-19-7-37-19-49 4-3 6-9 8-14 12-1 25-4 35-9-1 10-1 20 1 29l19-12-6-25c19-8 29 9 50 8 4 19 4 40 2 58zM783 518c-8-1-15 2-22 2-11-1-16-11-23-18-1 5 2 13-2 16-10 1-21 2-31 1 6-16 5-35 6-47 1-13 0-23-1-32h16c-13 19 23 33 26 9 6 3 16 6 25 7-2 5-6 9-10 13 4 8 32 47 16 49zM697 473l-3 32c-2 7-1 16-10 17s-19 1-26-6c-17 11-36 12-49-4 3-25 3-44-4-72l4 1h1l3 1h2l4 1h1l2 1h1l2 1h2v1h1l6 2c-2 10 3 19 12 24h1c3-1 4-3 5-5l2-1 1-2 2-4 1-10h2l1-1h3l2-1h2l16-4 5-1h4l4-1c2 10 2 15 0 31zM418 431c-4 6-10 11-15 16v1c-6 5-11 11-13 18-2 4-3 9-2 15v3l1 2v4l1 7v17l-1 1a79 79 0 0 1-40 2l-3-1-5-2-2-1c-1-15 2-30 3-44v-6h-1l-1-2v-1l-2-2-1-1-1-1-1-1h-1v-1l-1-1-1-1v-1l-3-13-1-5 9-1c10 2 9 9 19 11 16 1 25-11 35-17h1a15 15 0 0 1 3-1c4-1 8-2 12 0h1l10 6zM321 488l-1 19c0 8-9 9-15 11-28 5-22-3-22-26-7 5-14 6-20 0 1 9 6 19 0 26-9 5-19 6-28 3 5-20 5-43-6-62 12 2 18-9 27-14 3 5 2 18 9 17 16 0 16-1 18-16 9 6 24 2 32-5 4 15 6 31 6 47zM224 507c0 13-14 10-23 12-24 1-50 1-72-7-4-7-2-17-3-25 13-7 19-22 19-37 16 14 27-3 40-12l-3 29c10 2 33-6 39 3 4 3 4 29 3 37zM130 437c-2-11-29-10-38-8-40 4-42 19-68 27 0 6 3 11 8 7 3 14 4 28 6 43 1 5 0 13 5 15 12 4 26 3 38 0 4-1 7-5 7-9l-2-16c-2-7 5-7 11-9 16-3 40-17 33-50zm-39 15-4 3c-18 10-18 0-23-15 8-7 36 1 27 12zM597 487v10l-1 9v1c-1 3-2 5-6 7l-9 4c-29 4-22-4-23-26-6 5-14 5-20-1l2 7v4l1 1v9l-1 2v1l-1 1-1 1h-1v1h-1l-1 1-8 2-1 1h-1c-7 1-15 0-19-6l-1-3 3-5c8-15 4-40-9-52l1 1 5 2c9 0 16-6 22-12h1l1-1 2-1 1-1 2 7 2 8 3 2 1 1h2l9-1c3-1 4-2 5-5v1l2-11h1l2 1h1l1 1h5c8 1 17-2 22-7l2 8c3 11 4 21 4 32l1 6zM982 490v1c0 3 0 6-2 9-2 7-6 12-13 17l-1 1c-7 4-15 8-25 9-11 1-23-1-36-8h-2c5-13 5-26 4-39 7 5 17 11 26 5l1-1h1l1-1h-1c-10-5-18-8-26-15h1l-4-4v-5l-1-15h2l2-1h1l4-1 8-2 3-1h2l4-1 1-1h3l1-1 5-1h1l2-1 2-1h3l8-2 1-1h3l2-1h15l3 1h1c-3 9-8 17-14 24h-1c-3-9-11-12-16-7-3 6 5 9 14 15v1c4 2 8 5 11 10 4 6 5 12 6 17z"/></g></svg>